Coordinates
version=1
nRows=10
nColumns=63
inDegrees=yes

Units are S.I. units (second, meters, Newtons, ...)
If the header above contains a line with 'inDegrees', this indicates whether rotational values are in degrees (yes) or radians (no).

endheader
time	pelvis_tilt	pelvis_list	pelvis_rotation	pelvis_tx	pelvis_ty	pelvis_tz	hip_flexion_r	hip_adduction_r	hip_rotation_r	knee_angle_r	knee_angle_r_beta	ankle_angle_r	subtalar_angle_r	mtp_angle_r	hip_flexion_l	hip_adduction_l	hip_rotation_l	knee_angle_l	knee_angle_l_beta	ankle_angle_l	subtalar_angle_l	mtp_angle_l	L5_S1_Flex_Ext	L5_S1_Lat_Bending	L5_S1_axial_rotation	L4_L5_Flex_Ext	L4_L5_Lat_Bending	L4_L5_axial_rotation	L3_L4_Flex_Ext	L3_L4_Lat_Bending	L3_L4_axial_rotation	L2_L3_Flex_Ext	L2_L3_Lat_Bending	L2_L3_axial_rotation	L1_L2_Flex_Ext	L1_L2_Lat_Bending	L1_L2_axial_rotation	L1_T12_Flex_Ext	L1_T12_Lat_Bending	L1_T12_axial_rotation	Abs_r3	Abs_r2	Abs_r1	Abs_t1	Abs_t2	neck_flexion	neck_bending	neck_rotation	arm_flex_r	arm_add_r	arm_rot_r	elbow_flex_r	pro_sup_r	wrist_flex_r	wrist_dev_r	arm_flex_l	arm_add_l	arm_rot_l	elbow_flex_l	pro_sup_l	wrist_flex_l	wrist_dev_l
      0.00000000	      5.79449710	     -3.00762820	     90.86294823	      0.14238555	      0.89725766	      0.39738566	      3.89270016	     -0.96931125	    -22.99696744	     19.83817426	      0.34624146	     30.57807917	     18.76506158	      0.00000000	      6.78729845	     -5.06489067	    -10.17959075	     22.77803849	      0.39755177	     32.32227557	      3.73465690	      0.00000000	      0.19472245	      0.19716245	      2.27806149	      0.36161907	      0.26222606	      2.42044034	      0.31990952	      0.47938079	      2.42044034	      0.22254829	      0.47938079	      1.99330381	      0.18081927	      0.40205368	      1.85092496	      0.11126441	      0.30540464	      1.70854612	      1.39088302	      2.23034112	     12.66989460	      0.00000000	      0.00000000	     27.54359488	     -3.87458579	    -13.67148236	      7.22550366	     -9.64867557	     63.50249334	     46.70413315	     71.20336818	      3.10298217	     -1.38573663	      6.61843795	     -8.01733116	     48.19143499	     52.41336625	     86.48168841	     34.05555507	     23.57515841
      0.01694915	      5.73795687	     -3.21624489	     90.70488511	      0.14387410	      0.89599150	      0.39785843	      4.21348495	     -0.94541907	    -22.87325398	     20.10393387	      0.35087984	     31.15169292	     18.76708554	      0.00000000	      7.26053653	     -5.13588502	    -10.18040054	     23.17044739	      0.40440060	     32.04188754	      3.31466141	      0.00000000	      0.21361246	      0.17873837	      2.31557317	      0.39669971	      0.23772203	      2.46029649	      0.35094392	      0.43458447	      2.46029649	      0.24413768	      0.43458447	      2.02612652	      0.19836053	      0.36448328	      1.88140320	      0.12205816	      0.27686573	      1.73667988	      1.52581246	      2.02192415	     12.87852331	      0.00000000	      0.00000000	     27.68563564	     -3.72057267	    -13.08511382	      6.96768142	     -9.20838765	     62.92636073	     45.91276484	     71.02183550	      1.75787116	     -3.40954175	      6.90139721	     -8.11411396	     47.85850554	     52.15385409	     86.44205753	     34.91890877	     23.31555719
      0.03389831	      5.60698511	     -3.30915025	     90.56829052	      0.14529196	      0.89495620	      0.39845195	      4.44861835	     -1.02208321	    -22.83742426	     20.38877699	      0.35585129	     31.74634442	     18.76970887	      0.00000000	      7.54790370	     -5.13130362	    -10.22119600	     23.46863890	      0.40960502	     31.72920293	      3.07575907	      0.00000000	      0.21084126	      0.14601083	      2.35234195	      0.39155330	      0.19419441	      2.49936332	      0.34639111	      0.35501074	      2.49936332	      0.24097048	      0.35501074	      2.05829921	      0.19578719	      0.29774529	      1.91127783	      0.12047470	      0.22617078	      1.76425646	      1.50601804	      1.65170375	     13.08302022	      0.00000000	      0.00000000	     27.78415550	     -3.69000610	    -13.48942115	      7.12316846	     -8.64219087	     63.04819956	     44.93290313	     70.86514350	      0.70406246	     -5.03381877	      6.81794049	     -8.13783644	     46.89716136	     51.98252861	     86.52101633	     34.16618930	     22.83584338
      0.05084746	      5.43728436	     -3.47981230	     90.49226118	      0.14631240	      0.89381987	      0.39900715	      4.73091693	     -1.15818671	    -22.88084369	     20.56519518	      0.35893037	     32.38863071	     18.78265665	      0.00000000	      7.82557095	     -4.96982465	     -9.91308184	     23.57402955	      0.41144443	     31.44523647	      2.48098266	      0.00000000	      0.22291979	      0.11551335	      2.31819464	      0.41398435	      0.15363276	      2.46308180	      0.36623493	      0.28085917	      2.46308180	      0.25477503	      0.28085917	      2.02842031	      0.20700332	      0.23555483	      1.88353314	      0.12737637	      0.17893019	      1.73864598	      1.59229380	      1.30671017	     12.89310313	      0.00000000	      0.00000000	     27.84242309	     -3.53264909	    -13.33906014	      7.99814417	     -8.15746397	     65.38027545	     43.78224192	     69.41917937	     -0.99387962	     -7.57433306	      5.93292063	     -8.51218432	     45.68036871	     52.98615542	     86.26918876	     28.77750883	     21.89728965
      0.06779661	      5.17282232	     -3.70049662	     90.37712219	      0.14733212	      0.89264788	      0.39964012	      5.13837102	     -1.43229215	    -22.87506812	     20.84423074	      0.36380046	     33.01402398	     18.79551782	      0.00000000	      8.16829949	     -4.79114643	     -9.94699096	     23.77920047	      0.41502534	     31.25333738	      2.44615790	      0.00000000	      0.23918123	      0.06856713	      2.33263326	      0.44418346	      0.09119428	      2.47842284	      0.39295084	      0.16671412	      2.47842284	      0.27336022	      0.16671412	      2.04105410	      0.22210369	      0.13982209	      1.89526452	      0.13666815	      0.10621048	      1.74947494	      1.70844759	      0.77564507	     12.97340640	      0.00000000	      0.00000000	     27.89950215	     -3.62750861	    -14.06154173	      8.21490970	     -7.54963099	     65.29703016	     42.98830269	     69.24878248	     -1.35282957	     -8.12631808	      5.04771329	     -8.51228386	     44.00787424	     53.50700817	     86.12467477	     24.05578322	     20.46747362
      0.08474576	      4.97443149	     -3.79985813	     90.41200816	      0.14781976	      0.89170816	      0.40047798	      5.37056709	     -1.66699730	    -23.11927479	     21.01580978	      0.36679508	     33.52095688	     18.82700777	      0.00000000	      8.44220365	     -4.62233557	     -9.77444297	     24.04481407	      0.41966117	     31.15461880	      2.26821270	      0.00000000	      0.23876928	      0.04333855	      2.30872528	      0.44341844	      0.05764027	      2.45302061	      0.39227406	      0.10537336	      2.45302061	      0.27288941	      0.10537336	      2.02013462	      0.22172116	      0.08837598	      1.87583929	      0.13643277	      0.06713142	      1.73154396	      1.70550511	      0.49025437	     12.84043737	      0.00000000	      0.00000000	     27.93984939	     -3.61209788	    -13.78500426	      8.74094878	     -7.14524392	     65.52836655	     42.28843285	     69.52987166	     -1.53126290	     -8.39765569	      4.84378544	     -8.89024038	     44.94462840	     54.35688871	     84.55714406	     15.29562716	     18.39971485
      0.10169492	      4.66938982	     -3.93067891	     90.39623965	      0.14822235	      0.89078569	      0.40136323	      5.65104580	     -2.05250425	    -23.42090587	     21.24471758	      0.37079027	     33.94860226	     18.83386428	      0.00000000	      8.69904011	     -4.34523182	     -9.70625732	     24.24371162	      0.42313259	     31.21628639	      2.34012702	      0.00000000	      0.24188977	      0.00209333	      2.31905042	      0.44921349	      0.00278413	      2.46399108	      0.39740070	      0.00508972	      2.46399108	      0.27645582	      0.00508972	      2.02916912	      0.22461884	      0.00426872	      1.88422847	      0.13821581	      0.00324257	      1.73928782	      1.72779443	      0.02368016	     12.89786275	      0.00000000	      0.00000000	     27.96328104	     -3.84009833	    -14.32427661	      9.03961206	     -6.77563816	     64.59639385	     41.78274367	     71.09688653	     -1.74714889	     -8.20412881	      5.34166745	     -8.97765923	     46.11937117	     54.35142243	     81.97024978	      9.73835982	     15.97318732
      0.11864407	      4.58990219	     -4.04054729	     90.20687382	      0.14857426	      0.88991837	      0.40202819	      5.78750021	     -2.13880452	    -23.50765081	     21.18061975	      0.36967155	     34.07663926	     18.80587948	      0.00000000	      8.78682019	     -4.27303976	     -9.67604616	     24.21913228	      0.42270360	     31.48278882	      2.33837286	      0.00000000	      0.25174932	     -0.00643727	      2.30156888	      0.46752366	     -0.00856157	      2.44541693	      0.41359895	     -0.01565159	      2.44541693	      0.28772429	     -0.01565159	      2.01387277	      0.23377442	     -0.01312689	      1.87002471	      0.14384956	     -0.00997134	      1.72617666	      1.79822020	     -0.07281973	     12.80063562	      0.00000000	      0.00000000	     27.94248318	     -3.84768511	    -14.33878525	      9.60861323	     -6.78811042	     64.31126820	     41.67981042	     71.07817098	     -1.84144774	     -8.20226017	      6.02901182	     -8.74309938	     45.86079937	     54.35544430	     81.91533231	      9.60634770	     15.88532836
      0.13559322	      3.98437424	     -4.14004280	     90.35908821	      0.14842264	      0.88938419	      0.40338786	      6.14119958	     -2.97595016	    -24.07583654	     21.70267179	      0.37878308	     34.33152515	     18.87370284	      0.00000000	      9.08713579	     -3.66492886	     -9.58806663	     24.47033305	      0.42708788	     31.82478284	      2.88738978	      0.00000000	      0.24074760	     -0.07909222	      2.36320861	      0.44709237	     -0.10519266	      2.51090915	      0.39552423	     -0.19230483	      2.51090915	      0.27515043	     -0.19230483	      2.06780754	      0.22355822	     -0.16128486	      1.92010700	      0.13756318	     -0.12251386	      1.77240646	      1.71963604	     -0.89470706	     13.14345734	      0.00000000	      0.00000000	     27.98549348	     -4.56859393	    -15.48375969	      9.24292605	     -6.48491925	     60.27976491	     41.55936514	     73.65746187	     -1.86461514	     -7.47062456	      8.70877211	     -9.04105990	     50.51132023	     53.39760639	     76.75721661	      6.07911688	     12.94492804
      0.15254237	      3.61751665	     -4.24797561	     90.43757279	      0.14814827	      0.88890107	      0.40431086	      6.33448682	     -3.47441144	    -24.46717424	     21.85813678	      0.38149646	     34.42912161	     18.88864108	      0.00000000	      9.27280879	     -3.24813751	     -9.40586440	     24.50825690	      0.42774978	     32.18924754	      3.10062880	      0.00000000	      0.24065227	     -0.11972529	      2.38044828	      0.44691533	     -0.15923463	      2.52922630	      0.39536761	     -0.29110007	      2.52922630	      0.27504148	     -0.29110007	      2.08289224	      0.22346970	     -0.24414381	      1.93411423	      0.13750871	     -0.18545447	      1.78533621	      1.71895508	     -1.35435641	     13.23933919	      0.00000000	      0.00000000	     27.99039667	     -5.04361851	    -16.16036667	      9.15601934	     -6.56627072	     56.98190922	     41.92617807	     73.11993863	     -1.54125335	     -6.68790362	     10.81885879	     -8.83852396	     52.52162076	     52.54135602	     75.30249691	      7.13076975	     12.44348189
